<svg width="800" height="600" xmlns="http://www.w3.org/2000/svg">
  <!-- Signal Generator -->
  <rect x="80" y="40" width="130" height="80" fill="#eee" stroke="#000" />
  <text x="95" y="55" font-size="14">Signal Generator</text>
  <circle cx="110" cy="85" r="14" stroke="black" fill="none" />
  <text x="100" y="110" font-size="12">Freq.</text>
  <circle cx="180" cy="85" r="14" stroke="black" fill="none" />
  <text x="165" y="110" font-size="12">Ampl.</text>
  <circle cx="148" cy="105" r="10" stroke="black" fill="none" />
   <circle cx="148" cy="105" r="1" stroke="black" fill="black" />
  
  <!-- Oscilloscope -->
  <rect x="300" y="20" width="210" height="100" fill="#eee" stroke="#000" />
  <text x="415" y="40" font-size="14">Oscilloscope</text>
  <rect x="310" y="30" width="90" height="80" stroke="black" fill="white" />
  <circle cx="430" cy="100" r="10" stroke="black" fill="none" />
  <circle cx="430" cy="100" r="1" stroke="black" fill="black" />
  <text x="410" y="85" font-size="12">Chan 1</text>
  <circle cx="485" cy="100" r="10" stroke="black" fill="none" />
  <circle cx="485" cy="100" r="1" stroke="black" fill="black" />
  <text x="465" y="85" font-size="12">Chan 2</text>
  
  <!-- Filter 1 -->
  <rect x="200" y="200" width="110" height="200" fill="white" stroke="black" />
  <text x="240" y="220" font-size="14">Filter</text>
  <circle cx="230" cy="260" r="18" stroke="black" fill="none" />
  <line x1="230" y1="260" x2="245" y2="250" stroke="black" />
  <text x="212" y="290" font-size="12">Corner</text>
  <text x="218" y="300" font-size="12">Freq.</text>
  <circle cx="280" cy="245" r="10" stroke="black" fill="none" />
  <circle cx="280" cy="245" r="1" stroke="black" fill="black" />
  <text x="270" y="265" font-size="12">High</text>
  <text x="270" y="275" font-size="12">pass</text>
  <circle cx="280" cy="300" r="10" stroke="black" fill="none" />
  <circle cx="280" cy="300" r="1" stroke="black" fill="black" />
  <text x="270" y="320" font-size="12">Band</text>
  <text x="270" y="330" font-size="12">pass</text>
  <circle cx="280" cy="355" r="10" stroke="black" fill="none" />
  <circle cx="280" cy="355" r="1" stroke="black" fill="black" />
  <text x="270" y="375" font-size="12">Low</text>
  <text x="270" y="385" font-size="12">pass</text>
  <circle cx="230" cy="355" r="10" stroke="black" fill="none" />
  <circle cx="230" cy="355" r="1" stroke="black" fill="black" />
  <text x="218" y="375" font-size="12">Input</text>

  <!-- Filter 2 -->
  <rect x="350" y="200" width="110" height="200" fill="white" stroke="black" />
  <text x="390" y="220" font-size="14">Filter</text>
  <circle cx="380" cy="260" r="18" stroke="black" fill="none" />
  <line x1="380" y1="260" x2="395" y2="250" stroke="black" />
  <text x="360" y="290" font-size="12">Corner</text>
  <text x="365" y="300" font-size="12">Freq.</text>
  <circle cx="430" cy="245" r="10" stroke="black" fill="none" />
  <circle cx="430" cy="245" r="1" stroke="black" fill="black" />
  <text x="420" y="265" font-size="12">High</text>
  <text x="420" y="275" font-size="12">pass</text>
  <circle cx="430" cy="300" r="10" stroke="black" fill="none" />
  <circle cx="430" cy="300" r="1" stroke="black" fill="black" />
  <text x="420" y="320" font-size="12">Band</text>
  <text x="420" y="330" font-size="12">pass</text>
  <circle cx="430" cy="355" r="10" stroke="black" fill="none" />
  <circle cx="430" cy="355" r="1" stroke="black" fill="black" />
  <text x="420" y="375" font-size="12">Low</text>
  <text x="420" y="385" font-size="12">pass</text>
  <circle cx="380" cy="355" r="10" stroke="black" fill="none" />
  <circle cx="380" cy="355" r="1" stroke="black" fill="black" />
  <text x="370" y="375" font-size="12">Input</text>

  <!-- Wires -->
  <line x1="148" y1="105" x2="148" y2="355" stroke="black" stroke-width="2" />
  <line x1="148" y1="355" x2="230" y2="355" stroke="black" stroke-width="2"/>
  <line x1="148" y1="160" x2="430" y2="160" stroke="black" stroke-width="2"/>
  <circle cx="148" cy="160" r="2" stroke="black" fill="black" />
  <line x1="430" y1="160" x2="430" y2="100" stroke="black" stroke-width="2"/>
  <line x1="485" y1="100" x2="485" y2="355" stroke="black" stroke-width="2"/>
  <line x1="430" y1="355" x2="485" y2="355" stroke="black" stroke-width="2"/>
  <line x1="280" y1="245" x2="330" y2="245" stroke="black" stroke-width="2"/>
  <line x1="330" y1="245" x2="330" y2="355" stroke="black" stroke-width="2"/>
  <line x1="330" y1="355" x2="380" y2="355" stroke="black" stroke-width="2"/>
  
</svg>
