<svg width="1020" height="800" xmlns="http://www.w3.org/2000/svg"  xmlns:xlink="http://www.w3.org/1999/xlink">
  <defs>
  <marker id="arrowhead" markerWidth="6" markerHeight="4" 
          refX="6" refY="2" orient="auto" markerUnits="strokeWidth">
    <polygon points="0 0, 6 2, 0 4" fill="black"/>
  </marker>
</defs>
  <!-- Top Power Lines -->
  <line x1="100" y1="40" x2="800" y2="40" stroke="brown" stroke-width="3"/>
  <text x="810" y="44" font-size="12">L1in</text>
  <line x1="100" y1="60" x2="800" y2="60" stroke="black" stroke-width="3"/>
  <text x="810" y="64" font-size="12">L2in</text>
  <line x1="100" y1="80" x2="800" y2="80" stroke="gray" stroke-width="3"/>
  <text x="810" y="84" font-size="12">L3in</text>

  <!-- Top Plug -->
  <rect x="60" y="23" width="40" height="70" fill="#f0f0f0" stroke="black"/>
  <text x="85" y="55" font-size="14" transform="rotate(270, 95, 65)">Plug</text>
  
  <!-- Bottom Power Lines -->
  <line x1="300" y1="720" x2="950" y2="720" stroke="brown" stroke-width="3"/>
  <text x="260" y="724" font-size="12">L1out</text>
  <line x1="300" y1="740" x2="950" y2="740" stroke="black" stroke-width="3"/>
  <text x="260" y="744" font-size="12">L2out</text>
  <line x1="300" y1="760" x2="950" y2="760" stroke="gray" stroke-width="3"/>
  <text x="260" y="764" font-size="12">L3out</text>

<!-- Bottom Plug -->
  <rect x="950" y="703" width="40" height="70" fill="#f0f0f0" stroke="black"/>
  <text x="950" y="760" font-size="14" transform="rotate(270, 960, 745)">Plug</text>

<!-- Hall Effect Sensors (Top Right) -->
<rect x="725" y="110" width="50" height="50" fill="#ccf2ff" stroke="black"/>
<text x="750" y="125" font-size="12" text-anchor="middle">Hall</text>
<text x="750" y="140" font-size="12" text-anchor="middle">Effect</text>
<a xlink:href="https://github.com/skunkforce/edgy_boards" target="_blank">
  <text x="750" y="155" font-size="12" text-anchor="middle" fill="blue" text-decoration="underline">
    b0??
  </text>
</a>  

<rect x="645" y="170" width="50" height="50" fill="#ccf2ff" stroke="black"/>
<text x="670" y="185" font-size="12" text-anchor="middle">Hall</text>
<text x="670" y="200" font-size="12" text-anchor="middle">Effect</text>
<a xlink:href="https://github.com/skunkforce/edgy_boards" target="_blank">
  <text x="670" y="215" font-size="12" text-anchor="middle" fill="blue" text-decoration="underline">
    b0??
  </text>
</a> 

<rect x="565" y="230" width="50" height="50" fill="#ccf2ff" stroke="black"/>
<text x="590" y="245" font-size="12" text-anchor="middle">Hall</text>
<text x="590" y="260" font-size="12" text-anchor="middle">Effect</text>
<a xlink:href="https://github.com/skunkforce/edgy_boards" target="_blank">
  <text x="590" y="275" font-size="12" text-anchor="middle" fill="blue" text-decoration="underline">
    b0??
  </text>
</a> 

<!-- Triangles -->
<polygon points="555,350 555,310 530,330" fill="#ffcc00" stroke="black"/>
<polygon points="555,400 555,360 530,380" fill="#ffcc00" stroke="black"/>
<polygon points="555,450 555,410 530,430" fill="#ffcc00" stroke="black"/>

<!-- Rectangles -->
<rect x="330" y="310" width="90" height="90" fill="#ccf2ff" stroke="black"/>
<text x="375" y="355" font-size="12" text-anchor="middle">Analog Mux</text>
<a xlink:href="https://github.com/skunkforce/edgy_boards" target="_blank">
  <text x="380" y="370" font-size="12" text-anchor="middle" fill="blue" text-decoration="underline">
    b0??
  </text>
</a>

<rect x="155" y="310" width="135" height="90" fill="#ccf2ff" stroke="black"/>
<line x1="245" y1="310" x2="245" y2="400" stroke="black" stroke-width="1"/>
<line x1="250" y1="310" x2="250" y2="400" stroke="black" stroke-width="1" stroke-dasharray="5,5"/>
<text x="200" y="355" font-size="12" text-anchor="middle">RP2040</text>
<a xlink:href="https://github.com/skunkforce/edgy_boards" target="_blank">
  <text x="200" y="370" font-size="12" text-anchor="middle" fill="blue" text-decoration="underline">
    b018
  </text>
</a>
<text x="260" y="370" font-size="12" text-anchor="middle" dominant-baseline="middle" transform="rotate(270, 260, 360)">ADC</text>

<rect x="155" y="480" width="90" height="90" fill="#ccf2ff" stroke="black"/>
<text x="200" y="525" font-size="12" text-anchor="middle">Wiznet</text>
<a xlink:href="https://github.com/skunkforce/edgy_boards" target="_blank">
  <text x="200" y="540" font-size="12" text-anchor="middle" fill="blue" text-decoration="underline">
    b0??
  </text>
</a>

<rect x="15" y="480" width="90" height="45" fill="#ccf2ff" stroke="black"/>
<text x="60" y="500" font-size="12" text-anchor="middle">Flyback</text>
<a xlink:href="https://github.com/skunkforce/edgy_boards" target="_blank">
  <text x="60" y="515" font-size="12" text-anchor="middle" fill="blue" text-decoration="underline">
    b0??
  </text>
</a>

<rect x="15" y="640" width="90" height="90" fill="#ccf2ff" stroke="black"/>
<text x="60" y="680" font-size="12" text-anchor="middle">Magnetics</text>
<a xlink:href="https://github.com/skunkforce/edgy_boards" target="_blank">
  <text x="60" y="695" font-size="12" text-anchor="middle" fill="blue" text-decoration="underline">
    b0??
  </text>
</a>

<rect x="15" y="735" width="90" height="45" fill="#ccf2ff" stroke="black"/>
<text x="60" y="755" font-size="12" text-anchor="middle">PoE</text>
<text x="60" y="770" font-size="12" text-anchor="middle">plug</text>

<!-- lines -->
<line x1="760" y1="80" x2="760" y2="110" stroke="black" stroke-width="2"/>
<circle cx="760" cy="80" r="3" fill="black"/>

<line x1="740" y1="100" x2="740" y2="110" stroke="black" stroke-width="2"/>

<line x1="680" y1="60" x2="680" y2="170" stroke="black" stroke-width="2"/>
<circle cx="680" cy="60" r="3" fill="black"/>
  
<line x1="660" y1="100" x2="660" y2="170" stroke="black" stroke-width="2"/>
<circle cx="660" cy="100" r="3" fill="black"/>

<line x1="600" y1="60" x2="600" y2="230" stroke="black" stroke-width="2"/>
<circle cx="600" cy="60" r="3" fill="black"/>

<line x1="580" y1="100" x2="580" y2="230" stroke="black" stroke-width="2"/>
<circle cx="580" cy="100" r="3" fill="black"/>

<line x1="60" y1="100" x2="741" y2="100" stroke="black" stroke-width="2"/>
<circle cx="60" cy="100" r="3" fill="black"/>

<line x1="60" y1="100" x2="60" y2="480" stroke="black" stroke-width="2"/>
<line x1="60" y1="525" x2="60" y2="640" stroke="black" stroke-width="2"/>
<line x1="60" y1="355" x2="155" y2="355" stroke="black" stroke-width="2" marker-end="url(#arrowhead)"/>
<line x1="105" y1="502.5" x2="155" y2="502.5" stroke="black" stroke-width="2" marker-end="url(#arrowhead)"/>
<line x1="330" y1="355" x2="290" y2="355" stroke="black" stroke-width="2" marker-end="url(#arrowhead)"/>
<line x1="215" y1="400" x2="215" y2="420" stroke="black" stroke-width="2"/>
<line x1="215" y1="420" x2="375" y2="420" stroke="black" stroke-width="2"/>
<line x1="375" y1="420" x2="375" y2="400" stroke="black" stroke-width="2" marker-end="url(#arrowhead)"/>
<text x="300" y="435" font-size="12" text-anchor="middle">Set Mux</text>
<line x1="175" y1="400" x2="175" y2="480" stroke="black" stroke-width="2"/>
<line x1="195" y1="400" x2="195" y2="480" stroke="black" stroke-width="2"/>
<line x1="175" y1="570" x2="175" y2="670" stroke="black" stroke-width="2"/>
<line x1="195" y1="570" x2="195" y2="690" stroke="black" stroke-width="2"/>
<line x1="175" y1="670" x2="105" y2="670" stroke="black" stroke-width="2"/>
<line x1="195" y1="690" x2="105" y2="690" stroke="black" stroke-width="2"/>
<text x="140" y="665" font-size="12" text-anchor="middle">Data</text>

<line x1="750" y1="160" x2="750" y2="760" stroke="black" stroke-width="2"/>
<circle cx="750" cy="760" r="3" fill="black"/>
<line x1="670" y1="220" x2="670" y2="740" stroke="black" stroke-width="2"/>
<circle cx="670" cy="740" r="3" fill="black"/>
<line x1="590" y1="280" x2="590" y2="720" stroke="black" stroke-width="2"/>
<circle cx="590" cy="720" r="3" fill="black"/>

<line x1="555" y1="320" x2="750" y2="320" stroke="black" stroke-width="2"/>
<circle cx="750" cy="320" r="3" fill="black"/>
<line x1="555" y1="340" x2="670" y2="340" stroke="black" stroke-width="2"/>
<circle cx="670" cy="340" r="3" fill="black"/>
<line x1="555" y1="370" x2="670" y2="370" stroke="black" stroke-width="2"/>
<circle cx="670" cy="370" r="3" fill="black"/>
<line x1="555" y1="390" x2="590" y2="390" stroke="black" stroke-width="2"/>
<circle cx="590" cy="390" r="3" fill="black"/>
<line x1="555" y1="420" x2="590" y2="420" stroke="black" stroke-width="2"/>
<circle cx="590" cy="420" r="3" fill="black"/>
<line x1="555" y1="440" x2="750" y2="440" stroke="black" stroke-width="2"/>
<circle cx="750" cy="440" r="3" fill="black"/>

<line x1="408" y1="310" x2="408" y2="300" stroke="black" stroke-width="2"/>
<line x1="408" y1="300" x2="450" y2="300" stroke="black" stroke-width="2"/>
<line x1="450" y1="300" x2="450" y2="430" stroke="black" stroke-width="2"/>
<line x1="450" y1="430" x2="530" y2="430" stroke="black" stroke-width="2"/>

<line x1="395" y1="310" x2="395" y2="290" stroke="black" stroke-width="2"/>
<line x1="395" y1="290" x2="463" y2="290" stroke="black" stroke-width="2"/>
<line x1="463" y1="290" x2="463" y2="380" stroke="black" stroke-width="2"/>
<line x1="463" y1="380" x2="530" y2="380" stroke="black" stroke-width="2"/>

<line x1="382" y1="310" x2="382" y2="280" stroke="black" stroke-width="2"/>
<line x1="382" y1="280" x2="476" y2="280" stroke="black" stroke-width="2"/>
<line x1="476" y1="280" x2="476" y2="330" stroke="black" stroke-width="2"/>
<line x1="476" y1="330" x2="530" y2="330" stroke="black" stroke-width="2"/>

<line x1="369" y1="310" x2="369" y2="265" stroke="black" stroke-width="2"/>
<line x1="369" y1="265" x2="565" y2="265" stroke="black" stroke-width="2"/>
  
<line x1="356" y1="310" x2="356" y2="205" stroke="black" stroke-width="2"/>
<line x1="356" y1="205" x2="645" y2="205" stroke="black" stroke-width="2"/>

<line x1="343" y1="310" x2="343" y2="145" stroke="black" stroke-width="2"/>
<line x1="343" y1="145" x2="725" y2="145" stroke="black" stroke-width="2"/> 
  
</svg>
